<svg width="300" height="85" viewBox="0 0 300 85" fill="none" xmlns="http://www.w3.org/2000/svg">
<path fill-rule="evenodd" clip-rule="evenodd" d="M131.86 26.1736C128.96 26.1736 125.518 26.7386 121.757 30.745V19.5329C121.757 16.7005 119.256 14.3964 116.18 14.3964C113.105 14.3964 110.603 16.7005 110.603 19.5329V56.0971C110.603 58.9295 113.105 61.2336 116.18 61.2336C119.256 61.2336 121.757 58.9295 121.757 56.0971V41.9058C121.757 37.826 123.861 35.5733 127.693 35.5733C131.446 35.5733 133.421 37.76 133.421 41.9058V56.0971C133.421 58.9295 135.923 61.2336 138.998 61.2336C142.074 61.2336 144.576 58.9295 144.576 56.0971V38.9267C144.568 30.9431 139.819 26.1736 131.86 26.1736ZM163.889 26.4232C159.347 26.4232 155.746 26.9662 152.217 28.1843C150.384 28.8153 149.157 30.4443 149.157 32.2347C149.157 34.6268 151.221 36.498 153.858 36.498C154.4 36.498 154.854 36.4246 155.475 36.2338C157.618 35.6174 159.881 35.3239 162.407 35.3239C168.398 35.3239 169.673 38.3691 169.689 40.9447C167.609 40.321 164.988 39.7486 161.331 39.7486C151.802 39.7486 146.337 43.7624 146.337 50.77V50.8947C146.337 57.2273 151.5 61.4832 159.18 61.4832C163.506 61.4832 166.972 60.2725 169.736 57.7923C170.207 59.6047 172.095 61.2411 174.995 61.2411C178.046 61.2411 180.436 59.0691 180.436 56.2954V41.1575C180.436 36.3953 179.082 32.7263 176.397 30.2608C173.624 27.7146 169.418 26.4232 163.889 26.4232ZM162.271 54.1234C159.108 54.1234 157.148 52.7439 157.148 50.5205V50.3958C157.148 47.7468 159.554 46.2352 163.753 46.2352C165.904 46.2352 168.047 46.6241 169.824 47.3286V48.7301C169.824 51.9 166.717 54.1234 162.271 54.1234ZM195.383 30.8335C198.267 27.7002 201.82 26.174 206.218 26.174C214.608 26.174 223.093 32.213 223.093 43.7627V43.8874C223.093 49.2073 221.316 53.7127 217.962 56.9267C214.894 59.8692 210.728 61.4835 206.218 61.4835C201.876 61.4835 198.426 60.1186 195.438 57.2129V66.0182C195.438 68.8506 192.937 71.1547 189.861 71.1547C186.786 71.1547 184.284 68.8506 184.284 66.0182V31.5599C184.284 28.7275 186.786 26.4234 189.861 26.4234C192.674 26.4234 195 28.346 195.383 30.8335ZM211.947 43.7627C211.947 38.7803 208.353 35.016 203.589 35.016C198.793 35.016 195.303 38.6923 195.303 43.7627V43.8874C195.303 48.9578 198.785 52.6341 203.589 52.6341C208.433 52.6341 211.947 48.9578 211.947 43.8874V43.7627ZM247.6 26.174C243.202 26.174 239.648 27.7002 236.764 30.8335C236.382 28.346 234.055 26.4234 231.243 26.4234C228.168 26.4234 225.666 28.7275 225.666 31.5599V66.0182C225.666 68.8506 228.168 71.1547 231.243 71.1547C234.318 71.1547 236.82 68.8506 236.82 66.0182V57.2129C239.808 60.1186 243.257 61.4835 247.6 61.4835C252.109 61.4835 256.276 59.8692 259.343 56.9267C262.697 53.7127 264.474 49.2073 264.474 43.8874V43.7627C264.474 32.213 255.989 26.174 247.6 26.174ZM244.97 35.016C249.735 35.016 253.328 38.7803 253.328 43.7627V43.8874C253.328 48.9578 249.814 52.6341 244.97 52.6341C240.166 52.6341 236.684 48.9578 236.684 43.8874V43.7627C236.684 38.6923 240.174 35.016 244.97 35.016ZM289.356 30.2976C290.392 27.7587 292.24 26.4233 294.702 26.4233C297.674 26.4233 300.008 28.5145 300 31.1708C300 31.9413 299.729 33.0566 299.49 33.5703L286.91 61.3952C283.747 68.4469 280.448 70.9491 274.306 70.9491C272.139 70.9491 270.473 70.6849 268.561 70.0538C267.247 69.6136 265.032 68.4689 265.032 65.7539C265.032 63.0829 267.318 61.4906 269.525 61.4906C270.402 61.4906 270.928 61.63 271.35 61.7621C272.218 62.0116 272.696 62.1143 273.358 62.1143C275.031 62.1143 275.732 61.8649 276.576 60.3753L276.831 59.8176L264.594 33.7024C264.315 33.0566 264.02 32.0587 264.02 31.3616C264.02 28.5439 266.386 26.4159 269.525 26.4159C272.115 26.4159 273.868 27.6633 274.871 30.2316L282.241 48.4807L289.356 30.2976Z" fill="white"/>
<path d="M79.9674 21.57V51.5832C79.9674 63.4955 69.4174 73.1532 56.4046 73.1532H54.0213L41.8506 84.2873C41.374 84.7237 40.7146 85 39.9837 85C39.3084 85 38.6967 84.7746 38.228 84.3964L38.0215 84.2073L38.0135 84.2L25.9461 73.1532H23.5549C10.55 73.1532 0 63.4955 0 51.5832V21.57C0 9.65777 10.55 0 23.5628 0H56.4046C69.4174 0 79.9674 9.65777 79.9674 21.57Z" fill="#FFD666"/>
<path d="M18.6188 41.5776C16.299 41.5776 14.9768 43.9974 16.3227 45.7446C21.5561 52.5508 30.2097 56.9883 39.9875 56.9883C49.7654 56.9883 58.4111 52.5435 63.6444 45.7446C64.9903 43.9974 63.6682 41.5776 61.3484 41.5776H18.6188Z" fill="white"/>
<path d="M32.205 31.2775H18.2072V24.8149C18.2072 21.2474 21.3424 18.3524 25.2061 18.3524C29.0697 18.3524 32.205 21.2474 32.205 24.8149V31.2775Z" fill="white"/>
<path d="M61.7685 31.2775H47.7707V24.8149C47.7707 21.2474 50.906 18.3524 54.7696 18.3524C58.6333 18.3524 61.7685 21.2474 61.7685 24.8149V31.2775Z" fill="white"/>
</svg>
